<svg id="Layer_1" data-name="Layer 1" xmlns="http://www.w3.org/2000/svg" viewBox="0 0 334.82 653.62"><defs><style>.cls-1{fill:#343d70;}.cls-2{fill:#fff;}.cls-3{fill:none;stroke:#000;stroke-miterlimit:10;}</style></defs><title>POS_1</title><polygon class="cls-1" points="225.12 0.5 334.12 320.97 268.72 320.97 216.39 160.74 172.93 160.74 172.93 106.58 204.24 106.58 185.77 43.76 172.93 43.76 172.93 0.5 225.12 0.5"/><polygon class="cls-2" points="268.72 371 238.35 463.14 204.2 463.14 219.37 371 268.72 371"/><path class="cls-2" d="M965.31,653.84l-46.54.16h-3.92l-43-.12-5.4,0h98.88Z" transform="translate(-696.59 -321.19)"/><polygon class="cls-2" points="230.96 487.93 190.56 609.13 180.17 609.13 200.12 487.93 230.96 487.93"/><path class="cls-1" d="M920.28,654c23.46,0,45.09,0,45-.16h45.17l12.23,23.52L986.37,784.2l-20.65,13.49,12.17,11.43L929,953,914.63,964.6l-11.89,9.71H869.52l7.24-44h10.39l40.4-121.2H896.71l4.08-24.79h34.15l30.37-92.14H916L922.24,654Z" transform="translate(-696.59 -321.19)"/><path class="cls-2" d="M918.77,654l46.54-.16c.06.19-21.57.2-45,.16Z" transform="translate(-696.59 -321.19)"/><polygon class="cls-1" points="225.65 332.82 219.37 371 112.41 371 105.78 333.2 176.73 332.96 221.65 332.81 222.18 332.81 223.69 332.81 225.65 332.82"/><path class="cls-1" d="M918.24,654l-44.92.15-71,.24,6.63,37.8H766.24l30.66,92.14h28.26l4.35,24.79H804.59l34.46,121.2h11.71l7.72,44H807a1,1,0,0,1-1-.69L697.29,653.84H866.43l5.4,0c10,0,26.59.09,43,.12Z" transform="translate(-696.59 -321.19)"/><polygon class="cls-2" points="219.37 371 204.2 463.14 128.57 463.14 112.41 371 219.37 371"/><path class="cls-2" d="M871.83,653.87l43,.12C898.42,654,881.85,653.91,871.83,653.87Z" transform="translate(-696.59 -321.19)"/><polygon class="cls-2" points="185.77 43.76 204.24 106.58 172.93 106.58 172.93 43.76 185.77 43.76"/><polygon class="cls-1" points="204.2 463.14 200.12 487.93 132.92 487.93 128.57 463.14 204.2 463.14"/><polygon class="cls-2" points="200.12 487.93 180.17 609.13 154.17 609.13 132.92 487.93 200.12 487.93"/><polygon class="cls-1" points="180.17 609.13 172.93 653.12 161.89 653.12 154.17 609.13 180.17 609.13"/><rect class="cls-1" x="161.89" y="106.58" width="11.04" height="54.16"/><rect class="cls-2" x="161.89" y="43.76" width="11.04" height="62.82"/><rect class="cls-1" x="161.89" y="0.5" width="11.04" height="43.26"/><polygon class="cls-1" points="161.89 106.58 161.89 160.74 118.43 160.74 66.1 320.97 0.7 320.97 109.71 0.5 161.89 0.5 161.89 43.76 149.05 43.76 130.58 106.58 161.89 106.58"/><polygon class="cls-2" points="161.89 43.76 161.89 106.58 130.58 106.58 149.05 43.76 161.89 43.76"/><polygon class="cls-2" points="132.92 487.93 154.17 609.13 142.46 609.13 108 487.93 132.92 487.93"/><polygon class="cls-2" points="112.41 371 128.57 463.14 100.31 463.14 69.65 371 112.41 371"/><path class="cls-2" d="M762,653.84c-.13-.42.44,0,0,0Z" transform="translate(-696.59 -321.19)"/><polyline class="cls-3" points="161.89 0.5 109.71 0.5 0.7 320.97 66.1 320.97 118.43 160.74 161.89 160.74"/><polyline class="cls-3" points="161.89 0.5 172.93 0.5 225.12 0.5 334.12 320.97 268.72 320.97 216.39 160.74 172.93 160.74 161.89 160.74"/><polyline class="cls-3" points="161.89 43.76 149.05 43.76 130.58 106.58 161.89 106.58"/><polyline class="cls-3" points="161.89 43.76 172.93 43.76 185.77 43.76 204.24 106.58 172.93 106.58 161.89 106.58"/><path class="cls-3" d="M862.31,653.84h4.12l5.4,0,43,.12" transform="translate(-696.59 -321.19)"/><path class="cls-3" d="M914.85,654c-16.43,0-33-.08-43-.12" transform="translate(-696.59 -321.19)"/><line class="cls-3" x1="218.26" y1="332.8" x2="221.65" y2="332.81"/><polyline class="cls-3" points="65.37 332.65 165.72 332.65 268.72 332.65"/><path class="cls-3" d="M762,653.84c.44,0-.13-.42,0,0Z" transform="translate(-696.59 -321.19)"/><path class="cls-3" d="M858.48,974.31H807a1,1,0,0,1-1-.69L697.29,653.84H762" transform="translate(-696.59 -321.19)"/><polyline class="cls-3" points="161.89 653.12 172.93 653.12 206.15 653.12 218.04 643.41 232.37 631.79 281.3 487.93 269.13 476.5 289.78 463.01 326.12 356.17 313.89 332.65 308.42 332.65 268.72 332.65 222.18 332.81 221.65 332.81 176.73 332.96 105.78 333.2"/><polygon class="cls-3" points="128.57 463.14 100.31 463.14 69.65 371 112.41 371 219.37 371 268.72 371 238.35 463.14 204.2 463.14 128.57 463.14"/><polygon class="cls-3" points="154.17 609.13 142.46 609.13 108 487.93 132.92 487.93 200.12 487.93 230.96 487.93 190.56 609.13 180.17 609.13 154.17 609.13"/></svg>