<svg xmlns="http://www.w3.org/2000/svg" viewBox="0 0 334.82 653.62"><defs><style>.cls-1{fill:#343d70;}.cls-2{fill:#fff;}.cls-3{fill:none;stroke:#000;stroke-miterlimit:10;}</style></defs><title>Asset 2</title><g id="Layer_2" data-name="Layer 2"><g id="Layer_1-2" data-name="Layer 1"><polygon class="cls-1" points="225.12 0.5 334.12 320.97 268.72 320.97 216.39 160.74 172.93 160.74 172.93 106.58 204.24 106.58 185.77 43.76 172.93 43.76 172.93 0.5 225.12 0.5"/><polygon class="cls-2" points="268.72 371 238.35 463.14 204.2 463.14 219.37 371 268.72 371"/><path class="cls-2" d="M268.72,332.65l-46.54.16h-3.92l-43-.12-5.4,0h98.88Z"/><polygon class="cls-2" points="230.96 487.93 190.56 609.13 180.17 609.13 200.12 487.93 230.96 487.93"/><path class="cls-1" d="M223.69,332.81c23.46,0,45.09,0,45-.16h45.17l12.23,23.52L289.78,463,269.13,476.5l12.17,11.43L232.37,631.79,218,643.41l-11.89,9.71H172.93l7.24-44h10.39L231,487.93H200.12l4.08-24.79h34.15L268.72,371H219.37l6.28-38.18Z"/><path class="cls-2" d="M222.18,332.81l46.54-.16c.06.19-21.57.2-45,.16Z"/><polygon class="cls-1" points="225.65 332.82 219.37 371 112.41 371 105.78 333.2 176.73 332.96 221.65 332.81 222.18 332.81 223.69 332.81 225.65 332.82"/><path class="cls-1" d="M221.65,332.81l-44.92.15-70.95.24,6.63,37.8H69.65l30.66,92.14h28.26l4.35,24.79H108l34.46,121.2h11.71l7.72,44H110.43a1,1,0,0,1-1-.69L.7,332.65H169.84l5.4,0c10,0,26.59.09,43,.12Z"/><polygon class="cls-2" points="219.37 371 204.2 463.14 128.57 463.14 112.41 371 219.37 371"/><path class="cls-2" d="M175.24,332.68l43,.12C201.83,332.77,185.26,332.72,175.24,332.68Z"/><polygon class="cls-2" points="185.77 43.76 204.24 106.58 172.93 106.58 172.93 43.76 185.77 43.76"/><polygon class="cls-1" points="204.2 463.14 200.12 487.93 132.92 487.93 128.57 463.14 204.2 463.14"/><polygon class="cls-2" points="200.12 487.93 180.17 609.13 154.17 609.13 132.92 487.93 200.12 487.93"/><polygon class="cls-1" points="180.17 609.13 172.93 653.12 161.89 653.12 154.17 609.13 180.17 609.13"/><rect class="cls-1" x="161.89" y="106.58" width="11.04" height="54.16"/><rect class="cls-2" x="161.89" y="43.76" width="11.04" height="62.82"/><rect class="cls-1" x="161.89" y="0.5" width="11.04" height="43.26"/><polygon class="cls-1" points="161.89 106.58 161.89 160.74 118.43 160.74 66.1 320.97 0.7 320.97 109.71 0.5 161.89 0.5 161.89 43.76 149.05 43.76 130.58 106.58 161.89 106.58"/><polygon class="cls-2" points="161.89 43.76 161.89 106.58 130.58 106.58 149.05 43.76 161.89 43.76"/><polygon class="cls-2" points="132.92 487.93 154.17 609.13 142.46 609.13 108 487.93 132.92 487.93"/><polygon class="cls-2" points="112.41 371 128.57 463.14 100.31 463.14 69.65 371 112.41 371"/><path class="cls-2" d="M65.37,332.65c-.13-.42.44,0,0,0Z"/><polyline class="cls-3" points="161.89 0.5 109.71 0.5 0.7 320.97 66.1 320.97 118.43 160.74 161.89 160.74"/><polyline class="cls-3" points="161.89 0.5 172.93 0.5 225.12 0.5 334.12 320.97 268.72 320.97 216.39 160.74 172.93 160.74 161.89 160.74"/><polyline class="cls-3" points="161.89 43.76 149.05 43.76 130.58 106.58 161.89 106.58"/><polyline class="cls-3" points="161.89 43.76 172.93 43.76 185.77 43.76 204.24 106.58 172.93 106.58 161.89 106.58"/><path class="cls-3" d="M165.72,332.65h4.12l5.4,0,43,.12"/><path class="cls-3" d="M218.26,332.8c-16.43,0-33-.08-43-.12"/><line class="cls-3" x1="218.26" y1="332.8" x2="221.65" y2="332.81"/><polyline class="cls-3" points="65.37 332.65 165.72 332.65 268.72 332.65"/><path class="cls-3" d="M65.37,332.65c.44,0-.13-.42,0,0Z"/><path class="cls-3" d="M161.89,653.12H110.43a1,1,0,0,1-1-.69L.7,332.65H65.37"/><polyline class="cls-3" points="161.89 653.12 172.93 653.12 206.15 653.12 218.04 643.41 232.37 631.79 281.3 487.93 269.13 476.5 289.78 463.01 326.12 356.17 313.89 332.65 308.42 332.65 268.72 332.65 222.18 332.81 221.65 332.81 176.73 332.96 105.78 333.2"/><polygon class="cls-3" points="128.57 463.14 100.31 463.14 69.65 371 112.41 371 219.37 371 268.72 371 238.35 463.14 204.2 463.14 128.57 463.14"/><polygon class="cls-3" points="154.17 609.13 142.46 609.13 108 487.93 132.92 487.93 200.12 487.93 230.96 487.93 190.56 609.13 180.17 609.13 154.17 609.13"/></g></g></svg>